<?xml version="1.0" encoding="iso-8859-1"?>
<!-- Generator: Adobe Illustrator 19.0.0, SVG Export Plug-In . SVG Version: 6.00 Build 0)  -->
<svg version="1.1" id="Capa_1" xmlns="http://www.w3.org/2000/svg" xmlns:xlink="http://www.w3.org/1999/xlink" x="0px" y="0px"
	 viewBox="0 0 512 512" style="enable-background:new 0 0 512 512;" xml:space="preserve">
<path style="fill:#8CE0FF;" d="M256,503.969c-42.531,0-84.488-10.95-121.337-31.666c-35.723-20.083-66.219-49.006-88.19-83.644
	l-0.882-1.391l1.774-1.693l0.814-0.01h62.712l0.531,1.189C143.089,457.636,197.137,499.953,256,499.953V503.969z"/>
<path style="fill:#45CCFF;" d="M256,503.969c-30.181,0-59.932-11.013-86.039-31.847c-25.214-20.122-46.725-49.075-62.206-83.728
	l-1.263-2.827h55.9l0.526,1.204c7.715,17.642,17.646,36.485,21.621,43.884c1.968-3.663,5.391-10.124,9.26-17.811l2.369-4.708
	l1.363,5.091c14.76,55.116,36.07,86.727,58.467,86.727V503.969z"/>
<path style="fill:#8CE0FF;" d="M256,503.969c-24.356,0-47.08-32.696-62.346-89.703l-0.198-0.74l0.344-0.684
	c4.831-9.588,8.986-18.361,12.351-26.072l0.525-1.205h118.297l-0.488,2.407C309.747,460.606,284.144,503.969,256,503.969z"/>
<path style="fill:#45CCFF;" d="M256,499.953c25.7,0,50.434-43.214,64.552-112.779l0.326-1.608h84.62l-1.263,2.827
	c-15.482,34.653-36.992,63.605-62.205,83.728c-26.106,20.834-55.854,31.847-86.03,31.847V499.953z"/>
<g>
	<path style="fill:#8CE0FF;" d="M256,499.953c58.857,0,112.901-42.317,144.569-113.198l0.531-1.189h63.185l2.412,1.207l-1.172,1.886
		c-21.972,34.637-52.467,63.561-88.19,83.644C340.488,493.019,298.53,503.969,256,503.969V499.953z"/>
	<path style="fill:#8CE0FF;" d="M463.338,389.582h-64.033l1.264-2.827c17.455-39.052,26.68-84.266,26.68-130.755v-2.008h76.629
		l0.09,2.008c0,47.172-13.293,93.045-38.442,132.66l-0.972,1.53L463.338,389.582z"/>
</g>
<path style="fill:#45CCFF;" d="M320.063,389.582l0.489-2.407c7.954-39.148,12.157-84.507,12.157-131.174v-2.008h80.741l0.562,1.083
	c1.963,3.783,3.631,6.919,4.793,9.081c1.163-2.162,2.831-5.3,4.793-9.081l0.562-1.083h7.104V256c0,47.049-9.348,92.83-27.03,132.393
	l-0.531,1.189L320.063,389.582L320.063,389.582z"/>
<path style="fill:#8CE0FF;" d="M204.921,389.582l1.232-2.813c8.581-19.594,10.383-28.458,10.383-32.445
	c0-17.642-14.353-31.995-31.995-31.995c-1.439,0-2.867,0.095-4.247,0.283l-2.088,0.284l-0.183-2.099
	c-1.83-20.98-2.759-42.78-2.759-64.797v-2.008h161.461V256c0,46.931-4.233,92.568-12.238,131.974l-0.326,1.608H204.921z"/>
<path style="fill:#45CCFF;" d="M108.286,389.582l-0.531-1.189C90.072,348.831,80.725,303.05,80.725,256v-2.008h98.555V256
	c0,21.901,0.923,43.584,2.743,64.448l0.168,1.912l-1.903,0.252c-15.821,2.099-27.751,15.731-27.751,31.711
	c0,3.987,1.801,12.852,10.383,32.445l1.233,2.813h-55.865V389.582z"/>
<g>
	<path style="fill:#8CE0FF;" d="M46.474,388.66C21.324,349.045,8.031,303.172,8.031,256v-2.008h76.71V256
		c0,46.49,9.226,91.704,26.68,130.755l1.264,2.827H48.981l-1.189,1.131L46.474,388.66z"/>
	<path style="fill:#8CE0FF;" d="M8.122,258.008L8.031,256c0-47.166,13.29-93.039,38.432-132.66l0.962-1.516l1.217,0.593h64.042
		l-1.264,2.827C93.967,164.296,84.741,209.51,84.741,256v2.008H8.122z"/>
</g>
<path style="fill:#45CCFF;" d="M80.725,258.008V256c0-47.05,9.347-92.831,27.03-132.393l0.531-1.189h8.172l0.563,1.08
	c1.712,3.283,3.167,6.019,4.212,7.966c1.046-1.948,2.502-4.684,4.213-7.966l0.563-1.08h65.928l-0.489,2.407
	c-7.96,39.179-12.168,84.538-12.168,131.174v2.008H80.725z"/>
<path style="fill:#8CE0FF;" d="M175.265,258.008V256c0-46.9,4.236-92.535,12.248-131.974l0.326-1.608H324.16l0.326,1.608
	c8.006,39.407,12.238,85.042,12.238,131.974v2.008H175.265z"/>
<path style="fill:#45CCFF;" d="M332.71,258.008V256c0-46.667-4.204-92.026-12.157-131.174l-0.489-2.407h83.64l0.532,1.187
	c4.257,9.498,8.108,19.582,11.444,29.973l0.723,2.252l-2.339,0.348c-15.536,2.312-27.251,15.916-27.251,31.646
	c0,9.483,9.915,33.995,27.201,67.251l1.526,2.933H332.71z"/>
<path style="fill:#8CE0FF;" d="M401.1,126.434l-0.531-1.19C369.262,55.156,315.836,12.843,257.649,12.057l0.041-4.016
	c84.699,0.559,162.395,43.662,207.836,115.299l1.191,1.876l-2.41,1.208l-0.495,0.009H401.1z"/>
<path style="fill:#45CCFF;" d="M320.878,126.434l-0.326-1.608C306.434,55.261,281.7,12.047,256,12.047V8.031
	c0.574,0,1.138,0,1.712,0.01c59.785,0.808,114.563,44.01,146.523,115.565l1.263,2.826L320.878,126.434L320.878,126.434z"/>
<g>
	<path style="fill:#8CE0FF;" d="M187.024,126.434l0.489-2.407C202.253,51.394,227.856,8.031,256,8.031
		c28.144,0,53.747,43.362,68.488,115.995l0.488,2.407H187.024z"/>
	<path style="fill:#8CE0FF;" d="M47.715,126.434l-2.436-1.188l1.183-1.905c12.146-19.149,26.877-36.57,43.782-51.778l2.22-1.998
		l1.012,2.81c5.148,14.298,14.022,32.556,20.559,45.355l0.45,0.879l-0.423,0.892c-1.013,2.137-1.876,4.015-2.639,5.736l-0.529,1.194
		H47.715V126.434z"/>
</g>
<path style="fill:#45CCFF;" d="M123.914,126.434l1.533-2.937c8.18-15.669,27.261-53.647,27.773-67.822l0.069-1.936h1.111
	c29.23-29.293,63.619-45.088,99.498-45.687c0.706-0.01,1.398-0.02,2.101-0.02v4.016c-25.699,0-50.434,43.214-64.552,112.779
	l-0.326,1.608C191.122,126.434,123.914,126.434,123.914,126.434z"/>
<path style="fill:#8CE0FF;" d="M153.118,57.756l0.103-2.106c0.008-0.168,0.007-0.336,0.007-0.504c0-6.99-2.215-13.627-6.403-19.193
	l-1.049-1.394l1.473-1.471l0.311-0.157c33.283-16.211,69.066-24.582,106.355-24.879l0.049,4.016
	c-35.051,0.585-68.697,16.179-97.301,45.093l-0.589,0.595H153.118z"/>
<g>
	<path style="fill:#FF7D46;" d="M418.806,151.813c-1.757,0-3.55,0.132-5.334,0.394c-17.488,2.602-30.677,17.915-30.677,35.617
		c0,13.837,17.326,49.234,27.654,69.103l0.562,1.082l7.795,14.724l7.791-14.725l0.563-1.078c1.179-2.256,2.458-4.754,3.807-7.422
		c10.881-21.508,23.849-49.669,23.849-61.684C454.817,167.967,438.663,151.813,418.806,151.813z"/>
	<path style="fill:#FF7D46;" d="M182.782,435.838c-0.136-0.246-13.641-24.818-23.542-47.458
		c-7.113-16.239-10.72-27.697-10.72-34.054c0-17.985,13.429-33.329,31.239-35.691c1.552-0.212,3.162-0.319,4.782-0.319
		c19.857,0,36.011,16.154,36.011,36.011c0,6.357-3.606,17.815-10.72,34.055c-3.393,7.776-7.581,16.616-12.445,26.27
		c-6.06,12.041-11.038,21.097-11.087,21.187l-1.758,3.194L182.782,435.838z"/>
	<path style="fill:#FF7D46;" d="M157.244,55.145c0-7.868-2.493-15.34-7.208-21.604c-6.864-9.156-17.362-14.406-28.803-14.406
		c-19.857,0-36.011,16.154-36.011,36.011c0,4.159,1.464,10.241,4.475,18.591c5.22,14.496,14.171,32.919,20.761,45.82
		c0.502,0.986,0.992,1.94,1.47,2.863l0,0l0.023,0.044c0.52,1.006,1.025,1.974,1.51,2.897l0.024,0.045
		c3.519,6.749,5.963,11.198,5.987,11.242l1.759,3.199l1.759-3.199c0.023-0.042,2.224-4.046,5.45-10.214l0,0l0.563-1.079
		c0.004-0.007,0.008-0.015,0.011-0.022l1.52-2.915h-0.006c10.416-20.155,26.205-52.83,26.7-66.573
		C157.243,55.612,157.244,55.379,157.244,55.145z"/>
</g>
<path style="fill:#8CE0FF;" d="M427.249,258.008V256c0-2.738-0.026-5.142-0.079-7.35l-0.013-0.505l0.228-0.451
	c15.101-29.852,23.416-51.115,23.416-59.871c0-17.642-14.353-31.995-31.995-31.995c-1.563,0-3.16,0.117-4.749,0.35l-1.683,0.246
	l-0.52-1.619c-3.291-10.25-7.089-20.195-11.285-29.558l-1.268-2.829h64.036l1.197-0.598l0.991,1.521
	c25.15,39.614,38.443,85.487,38.443,132.659v2.008H427.249z"/>
<path d="M257.862,0.011c-0.003,0-0.007,0-0.01,0c-0.004,0-0.008,0-0.011,0c-0.032,0-0.065-0.001-0.097-0.001
	c-0.023,0-0.045,0-0.067,0c-0.003,0-0.006,0-0.009,0c-0.536-0.008-1.067-0.01-1.6-0.009C256.044,0.001,256.022,0,256,0
	c-0.013,0-0.026,0.001-0.039,0.001c-0.694,0.002-1.392,0.009-2.107,0.02h-0.001c-0.002,0-0.004,0-0.006,0
	c-0.028,0-0.054,0-0.082,0.001c-0.036,0.001-0.072,0.003-0.108,0.003c-35.915,0.312-70.477,7.884-102.855,22.518
	c-8.031-7.259-18.6-11.439-29.567-11.439c-24.285,0-44.042,19.757-44.042,44.042c0,3.921,0.906,8.764,2.813,14.953
	c-15.417,14.604-28.967,31.036-40.324,48.937c-7.251,11.428-13.634,23.514-18.97,35.924c-2.191,5.094,0.164,10.998,5.257,13.189
	c1.293,0.556,2.637,0.819,3.96,0.819c3.89,0,7.594-2.276,9.227-6.076c4.195-9.757,9.1-19.294,14.599-28.427h40.81
	c-13.204,34.255-20.635,72.335-21.72,111.495H20.296c0.295-7.066,0.893-14.098,1.804-21.004c0.725-5.497-3.143-10.541-8.64-11.266
	c-5.495-0.721-10.54,3.143-11.266,8.64C0.738,233.372,0,244.7,0,256c0,48.699,13.726,96.06,39.691,136.961
	c22.681,35.755,54.161,65.611,91.037,86.342C168.775,500.694,212.094,512,256,512c43.906,0,87.225-11.306,125.272-32.696
	c36.875-20.731,68.356-50.589,91.035-86.339C498.274,352.061,512,304.699,512,256s-13.726-96.061-39.691-136.961
	C425.42,45.117,345.259,0.628,257.862,0.011z M458.234,377.535h-40.81c13.205-34.257,20.636-72.337,21.722-111.496h52.555
	C490.037,305.539,478.567,343.788,458.234,377.535z M53.765,377.535c-20.332-33.745-31.802-71.996-33.467-111.496h52.546
	c1.086,39.161,8.516,77.241,21.721,111.496H53.765z M92.935,266.039h74.37c0.202,15.883,0.879,31.61,2.031,46.955
	c-16.958,6.253-28.847,22.619-28.847,41.329c0,3.712,0.702,9.961,5.646,23.211H116.2C102.063,343.746,94.093,305.523,92.935,266.039
	z M420.253,244.002c-0.012,0.024-0.024,0.047-0.036,0.071c-0.48,0.949-0.95,1.874-1.411,2.776
	c-17.613-34.399-23.964-53.019-23.964-59.026c0-11.775,8.762-21.96,20.384-23.699c14.774-2.152,27.545,9.296,27.545,23.699
	C442.77,193.459,436.852,211.175,420.253,244.002z M400.896,147.604c-15.476,6.959-26.132,22.623-26.132,40.22
	c0,10.187,7.102,29.718,21.121,58.137h-51.198c-0.501-39.244-3.942-77.353-10.047-111.496h61.157
	C397.589,138.744,399.287,143.134,400.896,147.604z M330.655,114.387c-8.288-37.628-19.507-66.909-32.774-86.423
	c35.051,13.461,66.26,43.628,88.53,86.423H330.655z M256,20.078c9.547,0,20.131,9.354,29.798,26.337
	c9.491,16.671,17.808,40.001,24.273,67.972H201.93c6.465-27.969,14.781-51.3,24.272-67.972C235.87,29.432,246.453,20.078,256,20.078
	z M164.801,60.402c15.237-14.83,31.874-25.729,49.315-32.431c-13.265,19.513-24.483,48.792-32.77,86.416h-37.736
	C155.881,89.649,162.984,71.557,164.801,60.402z M314.241,134.465c6.303,33.879,9.85,72.064,10.366,111.496H187.384
	c0.517-39.407,4.068-77.592,10.376-111.496H314.241z M324.606,266.039c-0.516,39.43-4.064,77.615-10.366,111.496h-91.305
	c4.945-13.251,5.646-19.499,5.646-23.211c0-22.68-17.233-41.405-39.292-43.782c-1.072-14.549-1.709-29.448-1.905-44.503H324.606z
	 M170.336,383.684c-0.008-0.018-0.016-0.035-0.023-0.053c-0.012-0.028-0.025-0.056-0.037-0.084
	c-9.008-20.566-9.708-27.566-9.708-29.222c0-11.968,8.932-22.178,20.776-23.75c0.011-0.001,0.022-0.003,0.034-0.004
	c1.022-0.14,2.086-0.21,3.163-0.21c13.214,0,23.964,10.75,23.964,23.964c0,1.655-0.7,8.656-9.713,29.235
	c-0.009,0.02-0.018,0.04-0.027,0.06c-0.01,0.024-0.022,0.048-0.032,0.072c-3.297,7.545-7.368,16.135-12.106,25.542
	c-0.713,1.418-1.412,2.793-2.087,4.115C180.169,404.801,174.869,394.037,170.336,383.684z M154.572,397.613
	c9.572,20.987,20.665,41.172,21.176,42.099c1.765,3.206,5.134,5.195,8.793,5.195c0,0,0.001,0,0.002,0
	c3.53,0,6.774-1.866,8.586-4.874c6.194,17.865,13.232,32.618,20.957,44.003c-35.04-13.443-66.215-43.571-88.505-86.423
	L154.572,397.613L154.572,397.613z M206.294,414.796c3.027-6.09,5.775-11.84,8.21-17.183h95.567
	c-6.465,27.969-14.782,51.3-24.273,67.972c-9.668,16.983-20.251,26.337-29.798,26.337
	C238.507,491.922,219.595,462.472,206.294,414.796z M297.869,484.052c13.272-19.513,24.496-48.8,32.786-86.439h55.756
	C364.112,440.482,332.923,470.617,297.869,484.052z M334.64,377.535c6.105-34.143,9.545-72.252,10.046-111.496h61.47
	c2.305,4.356,3.774,7.024,3.857,7.174c1.71,3.102,4.924,5.049,8.447,5.17c-2.307,35.086-10.012,68.896-22.672,99.15H334.64V377.535z
	 M441.711,245.961c21.12-42.903,21.137-54.275,21.137-58.137c0-23.588-18.642-42.901-41.966-43.989
	c-1.101-3.16-2.249-6.286-3.438-9.37h40.79c20.333,33.745,31.803,71.995,33.468,111.496H441.711z M444.717,114.387h-35.89
	c-13.552-28.582-30.747-52.565-50.459-71.071C392.03,59.505,421.704,83.686,444.717,114.387z M121.234,31.182
	c7.612,0,14.597,3.494,19.164,9.585c0.003,0.005,0.007,0.01,0.011,0.015c3.133,4.162,4.789,9.13,4.789,14.363l0.002,0.111
	c-0.002,0.042-0.004,0.085-0.005,0.128c-0.23,6.369-6.705,25.086-23.961,58.777c-0.015-0.028-0.029-0.057-0.043-0.085
	c-6.412-12.553-15.094-30.408-20.109-44.296c-0.003-0.008-0.006-0.017-0.009-0.025c-0.013-0.035-0.027-0.071-0.039-0.106
	c-3.394-9.412-3.762-13.278-3.762-14.504C97.27,41.932,108.02,31.182,121.234,31.182z M87.79,90.585
	c3.481,8.071,7.418,16.378,11.085,23.802H67.298C73.589,106.016,80.435,98.065,87.79,90.585z M113.266,141.774
	c1.881,2.46,4.814,3.944,7.967,3.944l0,0c3.66,0,7.031-1.993,8.796-5.2c0.071-0.13,1.297-2.359,3.259-6.054h44.071
	c-6.11,34.165-9.554,72.274-10.056,111.496H92.935C94.009,209.306,100.956,173.736,113.266,141.774z M67.281,397.613h35.89
	c13.384,28.176,30.739,52.478,50.815,71.265C120.183,452.697,90.391,428.457,67.281,397.613z M357.995,468.888
	c20.079-18.788,37.437-43.094,50.824-71.274h35.899C421.605,428.462,391.807,452.706,357.995,468.888z"/>
<path d="M418.804,177.787c-12.919,0-12.941,20.078,0,20.078C431.723,197.866,431.745,177.787,418.804,177.787z"/>
<path d="M184.537,344.288c-12.919,0-12.941,20.078,0,20.078C197.456,364.366,197.477,344.288,184.537,344.288z"/>
<path d="M121.236,65.185c12.919,0,12.941-20.078,0-20.078C108.316,45.106,108.295,65.185,121.236,65.185z"/>
<path d="M18.071,180.036c-12.919,0-12.941,20.078,0,20.078C30.99,200.115,31.011,180.036,18.071,180.036z"/>
<g>
</g>
<g>
</g>
<g>
</g>
<g>
</g>
<g>
</g>
<g>
</g>
<g>
</g>
<g>
</g>
<g>
</g>
<g>
</g>
<g>
</g>
<g>
</g>
<g>
</g>
<g>
</g>
<g>
</g>
</svg>
