<?xml version="1.0" encoding="iso-8859-1"?>
<!-- Generator: Adobe Illustrator 19.0.0, SVG Export Plug-In . SVG Version: 6.00 Build 0)  -->
<svg version="1.1" id="Capa_1" xmlns="http://www.w3.org/2000/svg" xmlns:xlink="http://www.w3.org/1999/xlink" x="0px" y="0px"
	 viewBox="0 0 511.997 511.997" style="enable-background:new 0 0 511.997 511.997;" xml:space="preserve">
<g>
	<path style="fill:#FBC8AD;" d="M302.149,252.32c-8.964,0-17.357-4.392-22.454-11.748c-3.185-4.597-4.868-9.966-4.868-15.523
		c0-8.953,4.391-17.346,11.746-22.452l63.68-43.07l-121.856,4.401l-88.428,77.937c-4.433,3.907-10.126,6.059-16.032,6.059
		c-6.973,0-13.613-2.998-18.217-8.227c-4.289-4.859-6.426-11.099-6.018-17.569c0.407-6.471,3.311-12.394,8.178-16.678
		l115.714-101.987L390.59,53.497l47.302-41.695l67.064,50.907l-94.605,115.85l-92.625,68.863
		C313.081,250.639,307.712,252.32,302.149,252.32z"/>
	<path style="fill:#FBC8AD;" d="M7.042,449.289l94.605-115.85l92.625-68.863c4.646-3.216,10.013-4.896,15.577-4.896
		c8.964,0,17.357,4.392,22.454,11.748c3.185,4.597,4.868,9.966,4.868,15.523c0,8.953-4.391,17.346-11.746,22.452l-63.68,43.07
		l121.856-4.401l88.428-77.937c4.432-3.907,10.127-6.059,16.032-6.059c6.973,0,13.614,2.998,18.217,8.227
		c4.289,4.859,6.426,11.099,6.018,17.569c-0.407,6.471-3.311,12.394-8.178,16.678L288.403,408.534l-166.994,49.967l-47.302,41.695
		L7.042,449.289z"/>
</g>
<path d="M74.012,507.511c2.336,0,4.665-0.828,6.523-2.464l44.794-39.483l164.922-49.347c1.366-0.408,2.626-1.108,3.695-2.05
	L409.33,312.473c6.449-5.678,10.297-13.528,10.838-22.104c0.541-8.575-2.292-16.846-7.97-23.281
	c-5.677-6.447-13.526-10.296-22.102-10.838c-8.576-0.548-16.843,2.286-23.286,7.965l-86.313,76.073l-91.543,3.306l40.87-27.641
	c0.033-0.022,0.065-0.044,0.099-0.067c9.479-6.579,15.138-17.396,15.138-28.934c0-7.172-2.169-14.094-6.272-20.016
	c-11.041-15.939-33-19.924-48.953-8.886c-0.092,0.063-0.182,0.128-0.271,0.194l-92.428,68.717c-0.651,0.484-1.241,1.048-1.754,1.677
	L2.224,442.716c-1.694,2.073-2.472,4.746-2.155,7.403c0.316,2.658,1.698,5.074,3.831,6.691l64.15,48.695
	C69.818,506.846,71.917,507.511,74.012,507.511z M109.886,342.061l91.296-67.875c7-4.748,16.567-2.98,21.39,3.981
	c1.807,2.609,2.762,5.646,2.762,8.783c0,5.058-2.472,9.801-6.615,12.698l-69.305,46.872c-3.644,2.465-5.216,7.046-3.851,11.229
	c1.364,4.184,5.331,6.968,9.733,6.798l129.434-4.674c2.277-0.082,4.456-0.951,6.165-2.457l88.956-78.403
	c2.487-2.195,5.693-3.299,8.998-3.076c3.315,0.209,6.349,1.696,8.548,4.195c2.196,2.488,3.289,5.683,3.081,8.996
	c-0.209,3.313-1.696,6.347-4.191,8.543L282.523,397.94L117.6,447.286c-1.366,0.408-2.626,1.108-3.695,2.05l-40.36,35.576
	l-21.21-16.1l26.128-32.066c3.441-4.222,2.808-10.435-1.416-13.876c-4.222-3.442-10.434-2.808-13.876,1.416l-26.557,32.593
	l-12.65-9.602L109.886,342.061z"/>
<path d="M508.099,55.189l-64.15-48.695c-3.74-2.841-8.962-2.648-12.485,0.457L386.67,46.433L221.747,95.781
	c-1.366,0.408-2.626,1.108-3.695,2.05L102.667,199.526c-6.449,5.678-10.297,13.528-10.838,22.104
	c-0.541,8.575,2.292,16.846,7.97,23.281c5.677,6.447,13.526,10.296,22.102,10.838c8.576,0.547,16.843-2.286,23.286-7.965
	l86.313-76.073l91.543-3.306l-40.87,27.641c-0.033,0.022-0.065,0.044-0.099,0.067c-9.479,6.579-15.138,17.396-15.138,28.934
	c0,7.172,2.169,14.094,6.272,20.016c6.82,9.845,17.806,15.131,28.969,15.131c6.908,0,13.885-2.026,19.984-6.245
	c0.092-0.063,0.182-0.128,0.271-0.194l92.428-68.717c0.651-0.484,1.241-1.048,1.754-1.677l93.158-114.078
	c1.693-2.073,2.472-4.746,2.155-7.403C511.614,59.222,510.232,56.807,508.099,55.189z M402.111,169.937l-91.297,67.875
	c-7,4.747-16.567,2.98-21.39-3.981c-1.807-2.609-2.762-5.646-2.762-8.783c0-5.058,2.472-9.801,6.615-12.698l69.305-46.872
	c3.644-2.465,5.216-7.046,3.851-11.229c-1.365-4.184-5.32-6.979-9.733-6.798l-129.434,4.674c-2.277,0.082-4.456,0.951-6.166,2.457
	l-88.956,78.403c-2.488,2.194-5.698,3.291-8.998,3.076c-3.315-0.209-6.349-1.696-8.548-4.195c-2.196-2.488-3.289-5.683-3.081-8.996
	c0.209-3.313,1.696-6.347,4.191-8.543l113.766-100.27l164.923-49.347c1.366-0.408,2.626-1.108,3.695-2.05l40.36-35.576
	l49.581,37.635L402.111,169.937z"/>
<path d="M90.512,416.208c12.693,0,12.714-19.726,0-19.726C77.819,396.482,77.798,416.208,90.512,416.208z"/>
<g>
</g>
<g>
</g>
<g>
</g>
<g>
</g>
<g>
</g>
<g>
</g>
<g>
</g>
<g>
</g>
<g>
</g>
<g>
</g>
<g>
</g>
<g>
</g>
<g>
</g>
<g>
</g>
<g>
</g>
</svg>
